<?xml version="1.0" encoding="UTF-8"?>
<svg width="20px" height="15px" viewBox="0 0 20 15" version="1.1" xmlns="http://www.w3.org/2000/svg" xmlns:xlink="http://www.w3.org/1999/xlink">
    <!-- Generator: Sketch 45.2 (43514) - http://www.bohemiancoding.com/sketch -->
    <title>right-arrow (2)</title>
    <desc>Created with Sketch.</desc>
    <defs></defs>
    <g id="Page-1" stroke="none" stroke-width="1" fill="none" fill-rule="evenodd">
        <g id="home---1600px-v2-copy-3" transform="translate(-1795.000000, -3003.000000)" fill="#E20674">
            <g id="right-arrow-(2)" transform="translate(1795.000000, 3003.000000)">
                <path d="M13.4684278,0.49712453 C13.1953279,0.215291823 12.7428078,0.215291823 12.4601812,0.49712453 C12.1878752,0.770224392 12.1878752,1.22274451 12.4601812,1.49584437 L17.5712769,6.60614615 L0.707360399,6.60614615 C0.313588504,6.60614615 0,6.91973466 0,7.31350655 C0,7.70410287 0.313588504,8.0295998 0.707360399,8.0295998 L17.5712769,8.0295998 L12.4601812,13.1279932 C12.1878752,13.4106198 12.1878752,13.8663155 12.4601812,14.1362397 C12.7428078,14.4180724 13.1953279,14.4180724 13.4684278,14.1362397 L19.7886255,7.81604205 C20.0704582,7.54294219 20.0704582,7.09042207 19.7886255,6.82049779 L13.4684278,0.49712453 Z" id="Fill-1"></path>
            </g>
        </g>
    </g>
</svg>