<?xml version="1.0" encoding="UTF-8"?>
<svg width="25px" height="10px" viewBox="0 0 25 10" version="1.1" xmlns="http://www.w3.org/2000/svg" xmlns:xlink="http://www.w3.org/1999/xlink">
    <!-- Generator: Sketch 45.2 (43514) - http://www.bohemiancoding.com/sketch -->
    <title>angle-arrow-down</title>
    <desc>Created with Sketch.</desc>
    <defs></defs>
    <g id="Page-1" stroke="none" stroke-width="1" fill="none" fill-rule="evenodd">
        <g id="home---1600px-v2-copy-3" transform="translate(-948.000000, -5653.000000)" fill="#FFFFFF">
            <g id="scroll-button" transform="translate(904.000000, 5621.000000)">
                <path d="M68.750565,33.5027595 L67.4972405,32.250588 C67.330438,32.0837856 67.1382693,32 66.9207342,32 C66.7043522,32 66.5121835,32.0837856 66.3457654,32.250588 L56.4998078,38.0333413 L46.655772,32.250588 C46.4878165,32.0837856 46.2956478,32 46.0792658,32 C45.8617307,32 45.669562,32.0837856 45.5027595,32.250588 L44.250588,33.5027595 C44.0841699,33.6691777 44,33.8613464 44,34.0792658 C44,34.2968008 44.0841699,34.4889695 44.250588,34.655772 L55.9233016,41.6947207 C56.0916414,41.8626762 56.2838102,41.9453088 56.4998078,41.9453088 C56.7177272,41.9453088 56.9098959,41.8626762 57.076314,41.6947207 L68.750565,34.655772 C68.9173674,34.4889695 69,34.2968008 69,34.0792658 C69,33.8613464 68.9173674,33.6691777 68.750565,33.5027595 Z" id="angle-arrow-down"></path>
            </g>
        </g>
    </g>
</svg>