<?xml version="1.0" encoding="UTF-8"?>
<svg width="12px" height="22px" viewBox="0 0 12 22" version="1.1" xmlns="http://www.w3.org/2000/svg" xmlns:xlink="http://www.w3.org/1999/xlink">
    <!-- Generator: Sketch 45.2 (43514) - http://www.bohemiancoding.com/sketch -->
    <title>002-facebook-logo</title>
    <desc>Created with Sketch.</desc>
    <defs></defs>
    <g id="Page-1" stroke="none" stroke-width="1" fill="none" fill-rule="evenodd">
        <g id="home---1600px-v2-copy-3" transform="translate(-1646.000000, -51.000000)" fill="#000000">
            <path d="M1657.51941,51.0796496 L1654.64822,51.0750462 C1651.4227,51.0750462 1649.33827,53.1929878 1649.33827,56.4707202 L1649.33827,58.9585401 L1646.45146,58.9585401 C1646.20205,58.9585401 1646,59.1588418 1646,59.4057664 L1646,63.0103406 C1646,63.2574793 1646.20227,63.4573528 1646.45146,63.4573528 L1649.33827,63.4573528 L1649.33827,72.5527202 C1649.33827,72.7999124 1649.54011,73 1649.78968,73 L1653.55616,73 C1653.80551,73 1654.00762,72.7996983 1654.00762,72.5527202 L1654.00762,63.4573528 L1657.38281,63.4573528 C1657.63216,63.4573528 1657.83427,63.2574793 1657.83427,63.0103406 L1657.83573,59.4057664 C1657.83573,59.2872019 1657.788,59.1736691 1657.70357,59.0898443 C1657.61886,59.0057518 1657.50378,58.9585401 1657.38405,58.9585401 L1654.00762,58.9585401 L1654.00762,56.8495912 C1654.00762,55.8359319 1654.25146,55.3213139 1655.58486,55.3213139 L1657.51903,55.3207251 C1657.76816,55.3207251 1657.97022,55.1203698 1657.97022,54.8736594 L1657.97022,51.5267153 C1657.97022,51.2801655 1657.76838,51.0800779 1657.51941,51.0796496 Z" id="002-facebook-logo"></path>
        </g>
    </g>
</svg>