<?xml version="1.0" encoding="UTF-8"?>
<svg width="23px" height="22px" viewBox="0 0 23 22" version="1.1" xmlns="http://www.w3.org/2000/svg" xmlns:xlink="http://www.w3.org/1999/xlink">
    <!-- Generator: Sketch 45.2 (43514) - http://www.bohemiancoding.com/sketch -->
    <title>001-instagram-social-network-logo-of-photo-camera</title>
    <desc>Created with Sketch.</desc>
    <defs></defs>
    <g id="Page-1" stroke="none" stroke-width="1" fill="none" fill-rule="evenodd">
        <g id="home---1600px-v2-copy-3" transform="translate(-1721.000000, -51.000000)" fill="#000000">
            <g id="001-instagram-social-network-logo-of-photo-camera" transform="translate(1721.000000, 51.000000)">
                <path d="M2.94927317,0.0214111922 L20.0283439,0.0214111922 C21.6503488,0.0214111922 22.9774488,1.16723114 22.9774488,2.83537713 L22.9774488,19.1325596 C22.9774488,20.8007056 21.6503488,21.9465791 20.0283439,21.9465791 L2.94927317,21.9465791 C1.32681951,21.9465791 0,20.8007056 0,19.1325596 L0,2.83537713 C0,1.16723114 1.32681951,0.0214111922 2.94927317,0.0214111922 Z M16.7381098,2.45736253 C16.169,2.45736253 15.7040073,2.90127007 15.7040073,3.44447202 L15.7040073,5.8070365 C15.7040073,6.35002433 16.169,6.79414599 16.7381098,6.79414599 L19.3352585,6.79414599 C19.9040878,6.79414599 20.3697537,6.35002433 20.3697537,5.8070365 L20.3697537,3.44447202 C20.3697537,2.90127007 19.9040878,2.45736253 19.3352585,2.45736253 L16.7381098,2.45736253 Z M20.3805244,9.29347445 L18.3581512,9.29347445 C18.5494439,9.88956204 18.6531122,10.5210316 18.6531122,11.1742336 C18.6531122,14.8210414 15.454878,17.7774453 11.5105463,17.7774453 C7.56638293,17.7774453 4.36882195,14.8210414 4.36882195,11.1742336 C4.36882195,10.5206569 4.47204146,9.88940146 4.66378293,9.29347445 L2.55333659,9.29347445 L2.55333659,18.5548321 C2.55333659,19.0340681 2.96441951,19.4265353 3.46688537,19.4265353 L19.4675927,19.4265353 C19.9700585,19.4265353 20.3809171,19.0342822 20.3809171,18.5548321 L20.3809171,9.29347445 L20.3805244,9.29347445 Z M11.510322,6.66974696 C8.96203415,6.66974696 6.89584878,8.57983942 6.89584878,10.9363017 C6.89584878,13.2928175 8.96203415,15.2028564 11.510322,15.2028564 C14.0590024,15.2028564 16.1254122,13.2928175 16.1254122,10.9363017 C16.1254122,8.57983942 14.0592268,6.66974696 11.510322,6.66974696 Z" id="Fill-1"></path>
            </g>
        </g>
    </g>
</svg>