<svg width="23" height="22" viewBox="0 0 23 22" xmlns="http://www.w3.org/2000/svg">
  <path d="M23 13.442v8.483h-4.93V14.01c0-1.988-.713-3.345-2.497-3.345-1.362 0-2.173.914-2.53 1.8-.13.315-.163.755-.163 1.198v8.262H7.95s.065-13.405 0-14.794h4.93V9.23l-.033.048h.032v-.048c.655-1.007 1.825-2.444 4.443-2.444 3.245 0 5.677 2.114 5.677 6.658zM2.79 0C1.103 0 0 1.104 0 2.555c0 1.42 1.07 2.558 2.725 2.558h.033c1.72 0 2.79-1.137 2.79-2.558C5.514 1.105 4.477 0 2.79 0zM.293 21.925h4.93V7.13H.292v14.795z" fill="#FFF" fill-rule="evenodd"/>
</svg>
