<?xml version="1.0" encoding="UTF-8"?>
<svg width="88px" height="23px" viewBox="0 0 88 23" version="1.1" xmlns="http://www.w3.org/2000/svg" xmlns:xlink="http://www.w3.org/1999/xlink">
    <g id="Page-1" stroke="none" stroke-width="1" fill="none" fill-rule="evenodd">
        <g id="home---1600px-v2-copy-3" transform="translate(-175.000000, -50.000000)" fill="#000000">
            <g id="logo" transform="translate(175.000000, 50.000000)">
                <path d="M78.3274615,12.7542346 C82.5669549,12.7542346 85.4366751,10.5360767 85.4366751,7.1435794 L85.4366751,7.0790133 C85.4366751,3.45741051 82.6318681,1.56624862 78.5228954,1.56624862 L72.0666326,1.56624862 L72.0666326,12.7542346 L78.3274615,12.7542346 Z M70.3712518,0.000347129569 L78.6534162,0.000347129569 C83.6753396,0.000347129569 87.1313616,2.57674279 87.1313616,6.98077563 L87.1313616,7.04603599 C87.1313616,11.8402425 82.990453,14.319789 78.2302652,14.319789 L72.0666326,14.319789 L72.0666326,22.9910856 L70.3712518,22.9910856 L70.3712518,0.000347129569 Z" id="Fill-1"></path>
                <path d="M12.6281225,0.789094936 C12.6180557,0.764448737 12.6069476,0.740843926 12.5951451,0.716891986 L12.5833427,0.691551527 L12.5826485,0.691551527 C12.3719408,0.281938636 11.9456657,6.94259138e-05 11.4527417,6.94259138e-05 C10.9455854,6.94259138e-05 10.5088964,0.298600855 10.3047842,0.729041521 L10.2919405,0.729041521 L-0.000104138871,22.9915022 L1.76123129,22.9915022 L11.2645975,2.18004312 C11.322221,2.05264657 11.5027284,2.05264657 11.5613933,2.18004312 L17.4129564,15.0651456 L21.0324765,22.9915022 L22.8910082,22.9915022 L12.6281225,0.789094936 Z" id="Fill-4"></path>
                <path d="M55.4365922,0.000242990698 C55.1095961,0.000242990698 54.8232142,0.162352499 54.6454839,0.408467364 L45.7450817,13.5261466 C45.7009963,13.591407 45.6055357,13.591407 45.5604088,13.5261466 L36.6600067,0.408467364 C36.4829706,0.162352499 36.1958944,0.000242990698 35.8699398,0.000242990698 C35.3298062,0.000242990698 34.8924229,0.404996068 34.8924229,0.944782548 L34.8924229,22.9909815 L36.5228905,22.9909815 L36.5228905,3.1594692 L44.7509027,15.1361336 C45.1702352,15.7460402 46.0696479,15.7467345 46.4896747,15.1361336 L54.7183811,3.1594692 L54.7183811,22.9909815 L56.4137619,22.9909815 L56.4137619,0.944782548 C56.4137619,0.404996068 55.9760315,0.000242990698 55.4365922,0.000242990698" id="Fill-7"></path>
            </g>
        </g>
    </g>
</svg>