<svg width="18" height="22" viewBox="0 0 18 22" xmlns="http://www.w3.org/2000/svg">
  <path d="M15.085 2.254C13.567.8 11.467 0 9.17 0 5.662 0 3.504 1.434 2.312 2.638.842 4.12 0 6.09 0 8.04c0 2.45 1.027 4.33 2.746 5.028.116.047.232.07.346.07.362 0 .65-.236.75-.615.058-.218.192-.756.25-.99.126-.46.025-.682-.248-1.003-.498-.587-.73-1.28-.73-2.184 0-2.684 2.004-5.536 5.716-5.536 2.946 0 4.776 1.67 4.776 4.36 0 1.695-.367 3.267-1.032 4.423-.463.804-1.275 1.76-2.524 1.76-.54 0-1.024-.22-1.33-.605-.29-.365-.384-.836-.268-1.326.13-.555.31-1.133.484-1.692.316-1.022.614-1.986.614-2.755 0-1.317-.81-2.2-2.018-2.2-1.534 0-2.736 1.553-2.736 3.537 0 .974.26 1.702.377 1.98-.194.818-1.342 5.674-1.56 6.59-.126.535-.885 4.757.37 5.093 1.413.38 2.674-3.733 2.802-4.198.104-.378.47-1.807.692-2.685.68.654 1.778 1.097 2.845 1.097 2.012 0 3.822-.905 5.096-2.545 1.235-1.59 1.915-3.807 1.915-6.242 0-1.904-.82-3.78-2.248-5.15z" fill="#FFF" fill-rule="evenodd"/>
</svg>
