<?xml version="1.0" encoding="UTF-8"?>
<svg width="23px" height="18px" viewBox="0 0 23 18" version="1.1" xmlns="http://www.w3.org/2000/svg" xmlns:xlink="http://www.w3.org/1999/xlink">
    <!-- Generator: Sketch 45.2 (43514) - http://www.bohemiancoding.com/sketch -->
    <title>003-twitter-logo-silhouette</title>
    <desc>Created with Sketch.</desc>
    <defs></defs>
    <g id="Page-1" stroke="none" stroke-width="1" fill="none" fill-rule="evenodd">
        <g id="home---1600px-v2-copy-3" transform="translate(-1678.000000, -53.000000)" fill="#FFFFFF">
            <g id="003-twitter-logo-silhouette" transform="translate(1678.000000, 53.000000)">
                <path d="M22.9774488,2.1432973 C22.131778,2.50459459 21.2244,2.7492973 20.2709659,2.85864865 C21.244539,2.29702703 21.9895707,1.40594595 22.3428171,0.347675676 C21.4297171,0.86772973 20.4217,1.24551351 19.3477683,1.45032432 C18.4876244,0.566216216 17.2642488,0.0155675676 15.907361,0.0155675676 C13.304322,0.0155675676 11.1936512,2.04935135 11.1936512,4.55632432 C11.1936512,4.91189189 11.2352756,5.25902703 11.3157195,5.59113514 C7.39876341,5.40151351 3.92553902,3.59324324 1.60096829,0.845567568 C1.19448537,1.51535135 0.963307317,2.29551351 0.963307317,3.12854054 C0.963307317,4.70432432 1.7962439,6.09475676 3.05972927,6.90827027 C2.28726585,6.88335135 1.56063415,6.67854054 0.924712195,6.33816216 L0.924712195,6.39497297 C0.924712195,8.59475676 2.55002683,10.4306486 4.70518293,10.8485405 C4.3103122,10.9509189 3.8939561,11.0077297 3.46312683,11.0077297 C3.15879756,11.0077297 2.86445366,10.9785946 2.5758878,10.9232973 C3.17607561,12.7288108 4.91622195,14.0417297 6.97803171,14.0776216 C5.36561951,15.2951351 3.33253171,16.0187027 1.12413902,16.0187027 C0.743741463,16.0187027 0.369009756,15.9965405 0,15.9564324 C2.08632439,17.2474054 4.56297561,17.9999459 7.22519756,17.9999459 C15.8959732,17.9999459 20.6357683,11.0795135 20.6357683,5.07783784 L20.6200049,4.48978378 C21.5460634,3.85340541 22.3471927,3.05378378 22.9774488,2.1432973 Z" id="Fill-1"></path>
            </g>
        </g>
    </g>
</svg>