<svg xmlns="http://www.w3.org/2000/svg" viewBox="0 0 665.97 586.35"><path class="cls-1" d="M152.23 120.55l-.15 16.63 14.96 5.14-.6-18.14-14.21-3.63M166.29 100.75l-13.01-1.36-1.2 14.51 14.05 3.33.16-16.48M188.66 105.29l-16.93-3.48v17.23l17.53 4.54-.6-18.29M348.59 38.62l-9.22-10.73-11.18 10.28 9.52 11.79 10.88-11.34M351.92 69.46l10.73-13.91-9.98-13-10.88 12.1 10.13 14.81M333.93 55.25L324.1 42.4l-11.48 11.94 10.43 14.06 10.88-13.15M523.34 111.33h-15.87l-1.51 16.03 17.08-.61.3-15.42M501.58 111.64L484.04 113l-2.87 17.08 18.14-.61 2.27-17.83M520.02 150.94l2.57-17.54-18.45.91-3.17 18.14 19.05-1.51M545.87 270.21l16.63 4.99 10.12-15.72-15.72-5.75-11.03 16.48M316.24 511.77l-11.18 13.91 10.13 12.55 11.33-11.94-10.28-14.52M333.63 525.53l10.43 13.15 11.64-11.64-11.19-14.66-10.88 13.15M319.42 542.31l9.22 10.73 11.03-9.97-9.82-12.55-10.43 11.79M122.49 143.32s.55 4.52.83 6.55 1 7.56 1 7.56 12.76 4.73 27.94 18.54c5.07 4.61 8.58 8.39 8.58 8.39a121.65 121.65 0 0 0-14.94-20.66c-8.37-8.94-13.35-13.7-23.41-20.38zM90.03 254.82L137.34 274l-41.13-24.07-6.18 4.89M488.49 245.79l-.21.11zM550.19 237.08L543.41 226s-2.16-.47-15.86 4.22c-26.18 9-37.45 14.77-39.06 15.62.88-.43 5-2.07 21.15-5.13 26.99-5.16 40.55-3.63 40.55-3.63zM226.79 103.79s8.73-11.9 9-11.9 14.38 1.59 14.38 1.59l-7.83-8.93 8.33-11.11-14.38 6-8.23-7.14-.89 10.51-14.38 6.74 13.88 1.79zM111.42 234.98v-16.82l10.52-6.4-9.59-2.77-.34-14.3-7.31 12.7-8.75-1.43 4.37 10.68-5.88 12.28 9.5-5.72 7.48 11.78M98.14 278.8l-1.27-13.29-5.29 11.19-8.16-1.85 4.96 10.51-5.13 12.53 8.83-5.13 7.91 11.44-1.01-16.23 8.83-5.64-9.67-3.53M554.2 242.8l9.69-6.6 9.21 9.77-2.85-15.31 7.09-6.6-10.35-3.09-4.07-15.24-2.85 13.61-12.31-2.69 9.78 10.83-3.34 15.32M523.34 189.26l-.83 10.88 6.65-6.57 8.92 6.65-4.23-10.81 5.36-6.12-8.38-.68-5.22-10.36-.83 10.28-9.83-.07 8.39 6.8M463.1 99.92l7.34-4.46 9.75 5.9-4.92-8.47 5.82-3.55-9.29-1.89-5.83-8.24-.68 7.03-10.12-.68 8.84 6.12-.91 8.24M263.75 150.82c-13.12-6-22.84-14.56-33.11-22.83-3.39-2.73-6.87-4-10.28-3.54-3.64.5-5.82 2.79-5.82 6.38v2.24c.07 1.64.19 4 .33 6.77l.1 2.08a19.35 19.35 0 0 1-3.33-.11c-3.42-.43-8.41-2.85-16.11-2.85a48.35 48.35 0 0 0-15.54 3.14v38.22a50 50 0 0 1 15.17-2.56c7.34.05 12.77 2.19 18.33 2.19s5.58-4.2 5.58-4.2v-1.7c.07.3.11.5.11.5l-.09-10.76a2 2 0 0 0-.28 0v-.07a5 5 0 0 1 1.29-.16 7.21 7.21 0 0 1 .73 0h.17c.29 0 .59.09.92.16 5 1.12 13.41 3.69 18.25 5.32a59.32 59.32 0 0 0 23.4 2.37 40 40 0 0 0 28.75-17.15s-18.94.96-28.57-3.44zM412 110.79c-.89.37-6.48 1.37-14.38 1.26a46.11 46.11 0 0 1-15-3c-6.75-2-9-4.25-16.5-7.26s-11.39-3.74-15-3.85H345l-2.14.05-.26-12.61s-1.13-2.15-6.24-2.83a69.59 69.59 0 0 0-20.63.57 96.88 96.88 0 0 0-16 5.22l-1 41.2s10-6.79 26.43-10.68a23.17 23.17 0 0 1 12.41.25s.29.09.74.25l-.45 11.37v-.15a1.74 1.74 0 0 0 .06.53 2 2 0 0 0 .08.26l.08.18a2.8 2.8 0 0 0 .29.46c1.32 1.71 2.81 1.65 6 1.25 2.26-.28 12.26-.66 18.91 1 0 0 13.11 3.89 21.15 1.71s13.41-7.09 17.2-10.94c4.22-4.28 11.73-14.83 11.73-14.83s-.45.22-1.36.59zM519.07 165.23s-18.94.86-28.57-3.53c-13.12-6-22.84-14.56-33.11-22.83-3.39-2.73-6.87-4-10.28-3.54-3.64.5-6 1.94-5.82 6.27v.47c0 .36 0 .82.06 1.35v.53c.1 2.15.26 5.3.43 8.84a19.41 19.41 0 0 1-3.36-.11c-3.42-.43-8.41-2.85-16.11-2.85a48.34 48.34 0 0 0-15.48 3.17v38.22a46.52 46.52 0 0 1 15.17-2.43c7.22 0 13.41 2.27 18.33 2.07 5.56 0 5.58-4.2 5.58-4.2v-1.7c.07.3.11.5.11.5l-.09-10.76a2 2 0 0 0-.28 0v-.07a5 5 0 0 1 1.31-.16 7.19 7.19 0 0 1 .73 0h.08c.29 0 .59.09.92.16 5 1.12 13.41 3.69 18.25 5.32a59.33 59.33 0 0 0 23.4 2.37 40 40 0 0 0 28.73-17.09zM474.37 212c-3.32-6.14-6.91-8.6-6.91-8.6a35.57 35.57 0 0 0-6.92 8.6 32.34 32.34 0 0 0-3.61 11.37l-.6 14.65 22.56-.2L478 223a29.32 29.32 0 0 0-3.63-11zM88.18 379.68c-1.62-3.5-5.81-10-7.76-10.14s-5.52 4.49-7.74 9.24a18.66 18.66 0 0 0-1.77 10c0 1.47.16 9.26.16 9.26q10 .83 20.07 1.57s-.18-6.33-.27-9.38a29.74 29.74 0 0 0-2.69-10.55zM206.78 429.37c3 .09 6.09-.38 7.74-6.06 1.42-4.91.53-13.87 0-16.51-.68-3.38-2.26-9.39-7.57-9.84-7.89-.68-10 10.14-9.09 21.05.85 10.3 5.9 11.28 8.92 11.36z"/><path class="cls-1" d="M664.59 319a4.78 4.78 0 0 0-3.86-1.42s-8.35.75-23.62 1.87l-11.76.84c.82-8.95 1.26-18 1.26-27.16C626.62 131.26 495.36 0 333.45 0S40.27 131.26 40.27 293.17c0 8.63.4 17.17 1.13 25.62l-11.83-.85C13.82 316.77 5.26 316 5.23 316A4.8 4.8 0 0 0 0 321.11c0 .09 2.12 32.29 8 67.89 7.5 45.6 15.56 69.84 15.61 70a4.8 4.8 0 0 0 3.07 3.21c.29.1 25.32 8.41 79.63 16.3a293.15 293.15 0 0 0 455.06-.88c54-8.21 77.93-16.78 78.26-16.9a4.84 4.84 0 0 0 3-3.31 600.53 600.53 0 0 0 15.1-70.11c5.17-35.57 8.24-64.33 8.24-64.37a4.78 4.78 0 0 0-1.38-3.94zM72.35 224.19l-.09 6.18-2.17 3q1.05-4.59 2.26-9.18zm36.25 210.28c-4.19.73-7.67.41-11.91-.08-4.67-.53-9.32-2.18-9.23-4.8.06-1.69 1.24-2.06 2.53-2.53.7-.26 2.25-.86 2.2-2.56l-.43-14.91q-10.25-.7-20.5-1.49l.39 13.46s0 2.65 1 3.79 3.31 1.42 3.45 3.42c.18 2.6-4.1 4-12.35 3.33-7.12-.57-12.11-2.4-13.21-4.25-.91-1.54-.73-3 1.51-3.81s1.75-3.12 1.72-4.14-.77-24.66-.77-24.66 0-4.85.39-9 2.38-11.07 8.76-18.67S78 354.68 79.67 354.71c2.16 0 10.16 6.69 14.05 10.68a61.3 61.3 0 0 1 11 16.39c3.22 6.75 3.16 15.65 3.3 20.84s.52 18.19.55 19.1a19.4 19.4 0 0 0 .68 4.78c.59 1.62 2.76 1.63 3.36 3.58.39 1.44.3 3.64-4.01 4.39zm17.47 1.38c-4.92-.47-9.82-2-9.72-4.7.06-1.71 1.55-1.56 2.9-2.06.73-.27 1.77-1.87 1.72-3.58-.42-15.13-1.24-30.49-1.66-45.62-.05-1.71-.23-3.82-.37-4.85a4.38 4.38 0 0 0-3.4-3.93c-2.53-.71-3-.95-3.15-2.43-.15-1.15 2.09-3.66 8.12-4.26 7.11-.72 10.42 1.94 12.79 4.83 2.14 2.61 2.72 10.88 2.72 10.88.43 14.21.86 27.87 1.29 42.09.05 1.71.26 5.25.86 6.3.87 1.52 4 .79 4.66 2.75.46 1.44.34 3.66-4.2 4.49s-8.1.52-12.57.09zm45.25-48.73s3.38-.39 4.88 1.46c.67.83.67 3.74-.11 4.83-1.1 1.55-4.67 1.3-4.67 1.3-2-.09-4.81-.05-6.86-.15 0 0 .44 20.1.52 22.86s1.12 9.64 3.9 10.6 5.13 0 6.13-1.51 3.53-3.07 4.16-1.61-.08 5.51-1.56 7.9c-2.53 4.06-7.58 5.23-14.13 5.36-6.31.11-10.11-2.39-12.61-6.53-2.78-4.59-2.8-9.43-3-17.26l-.42-14.4s.33-4.47-2.84-6.67-4.41-1.33-4.48-3.76 2.23-2.56 3.94-2.83a16.09 16.09 0 0 0 7.73-2.91c2.49-1.81 4.32-4.45 5.86-8.06 1.4-3.29 2.4-5.08 5-4.3 1.66.51 1.46 3.54 1.51 5s.16 10.7.16 10.7c1.9.04 4.87-.14 6.89-.02zm-4-83.05c.15-4.84 4.67-8.89 4.67-8.89s4 4.14 4.46 9c.21 2.28 0 7.66 0 7.66l-9.13-.44s-.06-4.11.04-7.33zm67.36 240.49l6.12 1.23 1.8 1.73c-2.6-.96-5.26-1.93-7.88-2.96zm197.22.09l-7.62.18 4.13-18.07-20.74 17.4-27.88-1.67L394.78 554l-5 3.31a271.58 271.58 0 0 1-131.59-4.75l.71-5.61 28.57 1.36-26.87-12.47 4.08-21.88-23.38 12.32L214.66 512l14.29 21-10.69 4.45A270.73 270.73 0 0 1 141.45 483c15.55 1.74 32.77 3.37 51.74 4.76l.09.15-6.75 3.51 9.81 1.53 6.07 8.62 1-7.37 9.47.79-9.07-5.5.12-1c35.94 2.39 77.74 3.94 125.81 3.94h5c31-.07 59.4-.76 85.23-1.89l5.56 6.19-8.32 11.34 14.59-6 8.31 7 1.21-10.35 13.68-7-13.68-1.13v-1.06c32.57-1.83 60.7-4.35 84.68-7.16a270.34 270.34 0 0 1-94.05 62.27zM205.86 386.82c10.37.31 15.92 3.74 21 9.57 6.41 7.39 7.92 20.69 4.79 28.58-2.83 7.1-11.66 15.75-25 15.09-15.59-.77-22.93-10.25-25.37-18.56-2.52-8.58-1-18.93 3-24.9s10.6-10.11 21.58-9.78zm-3.77-108.08c.25-9.3 7.6-16.81 7.6-16.81a26.56 26.56 0 0 1 7.11 15.51c.34 4.38.12 23 .12 23l-14.83-.79s-.16-14.71 0-20.91zm87.2 153.55c.81 1.46 2.82 1.78 3.39 3.68.42 1.39.23 3.56-4.3 4.49a43.83 43.83 0 0 1-12.43.43c-4.86-.33-9.67-1.75-9.49-4.33.11-1.67 1.36-2.37 2.71-2.89a3.33 3.33 0 0 0 1.93-3s0-11.63-.07-20.77c0-4-3.17-9.33-6.77-9.12-5.76.32-6.06 8.44-6.18 11.62s-.34 13.29-.34 13.29c0 1.67-.1 4.92.47 5.94.82 1.47 2.94 1.89 3.39 3.43s.35 4-4.17 4.83a43.52 43.52 0 0 1-12.4.68c-4.86-.38-9.66-1.81-9.66-4.17 0-2.18 1.87-2.59 3.22-3.09a3 3 0 0 0 1.78-2.85c0-10.79-.84-22.47-.87-33.26-.18-4-6.17-2.4-6.29-5.36-.07-1.74 2.59-4 8.71-4.37s8.91 1 11.52 3a16.48 16.48 0 0 1 4.1 5 15.87 15.87 0 0 1 6.3-5.58c2.43-1.18 11.07-3.71 18.15 0s6.66 14 6.72 17.93 0 19.86 0 19.86c.02 1.6.02 3.6.58 4.61zM407 397.55c6.43 7 6.8 20.71 3.44 28.72-3 7.21-9.61 15.59-24.93 15.74-16 .16-23.3-9-25.66-17.15-2.43-8.4-.71-18.77 3.54-24.91s11.06-10.6 22.3-10.84c10.6-.22 16.23 2.89 21.31 8.44zm-9.63-111.62c.24-7.41 7.44-13.38 7.44-13.38s6.24 4.94 7 12.35c.33 3.48 0 15.67 0 15.67l-14.4.64s-.21-10.34-.05-15.27zm-22.47 91.52c-1.57 2.68-2.49 3.14-4.62 3.23-1 0-5.75-.65-9.15-.73s-7.19-.15-8.53 0-1.11 2.27-1.12 2.27v46c0 1.7 0 3.73.65 4.74.93 1.47 3.23 1.45 3.87 3.36.47 1.4.26 3.62-4.91 4.68a60.24 60.24 0 0 1-14.76.75c-5.55-.21-11.05-1.53-10.85-4.17.13-1.69 1.55-2.14 3.1-2.71.84-.31 2.71-1 2.71-2.72 0-16 .09-36.16.13-52.12-3.83 0-8.14-.08-12-.09a24.28 24.28 0 0 0-6.37.19c-2.83.58-5.75 3.44-8.13 3.14-3.56-.46-.68-5.34 1.76-9 1.62-2.42 2.5-5.73 5.36-6.47 2.12-.55 2.59.59 8.22.83 14 0 29.1 0 43.15.09 0 0 5.27.28 6.75-.37 2.06-.9 4.33-2 6.37-2.87 2.44-1.08 3.23-.18 3.33 1.2.23 3.32-2.86 7.23-4.98 10.78zm44.44 11.12a50.19 50.19 0 0 1 9.09-.54 7.43 7.43 0 0 1 5.84 4.27c1.55 3.15 1.91 8.76 1.91 10.79 0 3 .3 17.55.34 18.56.09 2.49 1.18 7.94 5 7.87s6-4.62 6.23-7.22c.14-1.28.56-20.24.56-24.6 0-2.32-.32-5.5.9-7.08 1.07-1.39 2.75-1.61 6.86-1.8s8.27 0 8.75 3 .26 19 .26 21.49-.15 6.51.1 8.82c.35 3.37 2.58 5.39 5.08 5.26a5.76 5.76 0 0 0 5.36-5.36c.18-2 .57-7.07.57-9.44 0-4.91.32-10.54.14-15.32-.08-2 .53-6.49 1-7.16 1.87-2.68 11.18-2.63 13.19-1.58s2.63 2.72 2.47 5.16c-.09 1.3-.6 20.1-.84 22.39-.6 5.53-2 12.43-6.29 17.19s-11.13 6.89-16.18 6.86-9-3-11.72-5.35c-.8-.69-1.34-.71-2.05-.09a28.89 28.89 0 0 1-12.58 6.17 19.56 19.56 0 0 1-16.42-5.21c-2.5-2.76-6.26-6.23-6.85-15.48s-.47-18.84-.4-20.5c.12-2.91-1.15-4.85-3-5.5-1.45-.51-3.38-.23-3.28-2.64.04-2.19 2.39-2.42 5.94-2.96zm-.21-103.27c.24-7.41 7.44-13.38 7.44-13.38s6.24 4.94 7 12.35c.33 3.48 0 15.67 0 15.67l-14.4.63s-.17-10.33-.06-15.27zm46 13.68s-.16-5.66 0-10.06c.25-6.61 7.62-11.93 7.62-11.93s6.05 4.1 6.79 10.7a102 102 0 0 1 0 10.47zm11.33 12.45v16.23l-10.77.32v-15.81zm38.94 109.73a12.58 12.58 0 0 0 10.35 8.44c5.34.48 8-.8 9.89-2.58 1.61-1.53 3.26-3.93 4.15-3.6 1.13.34 1.46 9.1-5.73 12.81-4.37 2.25-14 4.89-23 .53s-11-12.41-11.62-17.37-.93-16.5 8.56-25.77c7.2-7 19-8 25.59-5s8 8.21 8 12.92c.05 4.54-1.36 12.72-10.28 15.62a18.4 18.4 0 0 1-15.62-2 10.91 10.91 0 0 0-.33 6.01zm19.36-134.61v7.72l-10.65-3.71v-7.47l-9.29-3.09v8.17l-11.37-3.55v-8.3l-7.46-2.8V327l-7.21.25.12-53.87h-10.79l-.17-23.68-21.46.39v78.13l-13 .32v-88.8l-8.9.36v12.37l-9.61.23v-12.25l-12.76.36v12.47l-10.28.27v-12.47l-9.77.36v12.47l-5.54.13v75.44l-11.7.09v-77l8.18-12V185.9h4l-11.86-23.41-2.79 3-9.82 21.41h4.64v20.21l-27.17-43.9-7-36.37-6.85 36.51-27.86 44.76v-21l5.38-.07-10.08-21.78-2.69-2.87-11.82 23.41 4.31.07-.11 55.34 7.75 11.29.14 36.36h-3.73v-33.6l-6.54-9.93-4.09-.12-3.75 3.3v7.29l-6.83-.22v-10.07l-12.33-.35-4.24 2.84h-.13v6.93h-2.91l-5.21 3.7h-.08v69.56l-11.91-.32V249.6l9.95-19v-18.44l-12.4-.3v13.23l-10.73-.45V211l-14.66-.25V224l-10.43-.43-.15-13.47-12-.26.21 18.46 12.33 20.22-.07 78.07-7.08-.26v-52.81l-7.46 2.8v8.3l-11.37 3.55V280l-9.22 3.09v7.47l-10.65 3.71v-7.72l-8.62 3.71v34.1c-14.49-.68-28-1.39-40.34-2.09-11.63-.66-22.3-1.3-32-1.92q-1.34-13.41-1.36-27.19a271.57 271.57 0 0 1 4.35-48.5l4.47.1 2.95 27.55 7.26-26.53 19 .45-14.06-18 8.28-26.42-15.07 16.77-4.65-6.86a268.32 268.32 0 0 1 18.86-44.95l-2.95 13.38 13.6-22.9 16.67 2.61-6.92-17.57 15.19-22.45-9 6.18A270.57 270.57 0 0 1 243 38.72l-3.61 15.81 21.2-18.48 28.23 2.61-12-9.51A271.5 271.5 0 0 1 409 33.91l-28.43-1.49 27.21 12.71-4.57 22.3 23.31-13.27 27.1 14.61s-15.02-20.84-14.68-20.84c.11 0 1.8-.67 4.07-1.59a271.06 271.06 0 0 1 129.38 121l-9.12-1.12-13.6-25.22.78 23.53-21.08-.34 21.19 17.17-.67 29.33 13.83-17.84 18.74 16.84-11.26-27.88 4.44-8.15a268.87 268.87 0 0 1 27.82 119.47 273 273 0 0 1-1.52 28.7c-16.61 1-36.33 2.14-58.59 3.18v-34.74zm49.42 105.29a22.09 22.09 0 0 1-5.78 9.2c-3 2.5-3.28 1.1-3.59-1-.26-1.7.11-3.61-2.27-2.92s-5.1 2.41-5.33 5.49q-.7 10.17-1.39 20.35c-.06 1.61-.13 4.2.35 5.14.71 1.36 2.59 1.26 3.05 3 .33 1.32.08 3.43-4.19 4.61a40.09 40.09 0 0 1-11.7 1.29c-4.54 0-9-1.06-8.74-3.57.17-1.61 1.35-2.1 2.64-2.69a3.66 3.66 0 0 0 1.92-3c.38-10.42.67-21.74 1-32.17 0-3.83-4.61-2.47-5.39-4.38-.61-1.49 1.95-4.3 7.69-5.13s7.91.56 10.28 2.32a15.41 15.41 0 0 1 3.93 5.17 34 34 0 0 1 9.56-7.58c8.72-4.24 8.54 2.95 7.92 5.88zm27.76 38.69c-3.65 3.51-8.62 4.71-14.5 4.34-5.33-.33-11.3-2.21-12.2-4s-.49-6.89-.41-9.08c.06-1.83.22-2.8.92-2.53 1 .4 2.68 3.21 4.38 4.27a14.66 14.66 0 0 0 4.86 2.24c6.2 1.85 8.22-1.55 7.38-5.29-1.25-5.57-8.06-6.47-12.83-11.58-4.13-4.43-3.19-12.35-1.53-15.51 2.42-4.58 7.82-9.06 17-9.16 8.13-.09 12 5 11.74 7.27-.38 3.44-2.28 6.21-3.56 7-1.49 1-1.73.27-1.82-1a6.49 6.49 0 0 0-2.11-4.55c-1.56-1.34-6.69-1.5-8.26 1.29-3 5.37 3.18 7.72 7.12 10.3 5 3.27 8.78 7.5 9.12 11.33a18.89 18.89 0 0 1-5.34 14.67z"/><path class="cls-1" d="M518.84 408.22c4.07 1.83 8.11.15 9.57-3.23 1.21-2.79 2.36-8.31-3.3-8.83-2.4-.22-5.54 1.22-7.34 5.3 0 .01-2.1 5.33 1.07 6.76zM376.94 420.79c1 9 5.85 10.67 8.92 10.6s5.56-1.46 7.34-7.19c1.55-5 1.23-13.24.73-15.84-.63-3.32-2.09-9.58-7.53-9.76-8.06-.28-10.46 13.15-9.46 22.19z"/></svg>