<svg xmlns="http://www.w3.org/2000/svg" viewBox="0 0 703.84 104.8"><path d="M.25 2.63h14.6c5.58 0 9.43 1.07 12.22 3.28a14.67 14.67 0 0 1 5 11.32c0 5.08-2 8.53-6 10.91 3.77.82 5.25 1.56 7.13 3.44a14.52 14.52 0 0 1 3.94 10.25c0 9.51-7.13 15.42-18.45 15.42H.25zm13.69 22.8c5.41 0 8.28-2.54 8.28-7.22 0-4.51-2.87-7.05-8.12-7.05h-3.2v14.26h3zm1.56 23.21c7.3 0 11-2.54 11-7.54 0-5.17-3.61-7.54-11.56-7.54h-4v15.07h4.56zM114.72 57.24H101.6l-14.76-22h-1.31v22H74.87V2.63H90.7c6.07 0 10.58 1.31 13.78 3.94A16.23 16.23 0 0 1 110 18.91c0 5.41-2.38 10.33-6.4 13a13.07 13.07 0 0 1-6 2.3zM88.56 27.72c6.81 0 10.74-3 10.74-8.28s-3.77-8.2-10.58-8.2h-3.28v16.48zM159.9 45.76L155 57.24h-11.25l23.62-55.76h8l23 55.76H187l-4.76-11.48H159.9zm11.32-28.29l-7.87 19.68h15.58zM232.64 1.4H240l33.29 38V2.63H284V58.3h-7.3l-33.37-38v36.9h-10.69zM324.4 2.63h16.72c16.07 0 28.37 11.81 28.37 27.22 0 15.58-12.3 27.39-28.45 27.39H324.4zm14.68 45.43c11.73 0 19.43-7.22 19.43-18.12s-7.71-18-19.43-18h-4V48h4zM414.68 41.82L408 57.24h-6.56L426.57 0l24.6 57.24h-6.65L438 41.82zm11.81-27.63l-9.35 22h18.45zM492.66 51.58h15.09v5.66h-21.16V2.63h6.07v48.95zM549.89 51.58H565v5.66h-21.2V2.63h6.07v48.95zM607.21 8.28v16.16h21.57v5.66h-21.57v21.4h22.22v5.74h-28.29V2.63h28.29v5.66h-22.22zM661.9 2.91h7l13.87 24.23 14-24.23h7l-18 31v23.33h-6.07V33.91zM7 103.66H4.25v-15.9H0v-2.61h11.28v2.61H7zM37.36 92.4v-7.25h2.78v18.52h-2.78V95h-8v8.65h-2.78v-18.5h2.78v7.26h8zM60.19 87.76v4.45h7.2v2.61h-7.2V101h7.4v2.64H57.38V85.15h10.2v2.61h-7.39zM102.4 83.91L115.88 98V85.15h2.81v19.66l-13.51-14.1v13h-2.78zM144.71 84.79a9.61 9.61 0 0 1 .56 19.21h-.62a9.52 9.52 0 0 1-9.65-9.37v-.14a9.68 9.68 0 0 1 9.66-9.7zm0 16.6a6.87 6.87 0 0 0 6.84-6.9v-.1a6.85 6.85 0 1 0-6.87 7zM170.65 83.91L184.13 98V85.15h2.81v19.66l-13.51-14.1v13h-2.78zM207.3 96.57v2.34H202v-2.34zM230.51 89.24c-.86-1.39-1.47-1.81-2.75-1.81a2.47 2.47 0 0 0-2.76 2.18v.13c0 .89.67 1.61 2 2.17l1.83.75c3 1.22 4.34 2.92 4.34 5.45a5.74 5.74 0 0 1-5.58 5.89h-.37c-3.23 0-5.42-2-5.92-5.45l2.84-.61c.31 2.45 1.22 3.45 3.2 3.45a3 3 0 0 0 3-3v-.09c0-1.45-.78-2.36-2.64-3.17l-1.78-.75c-2.56-1.06-3.81-2.58-3.81-4.7 0-2.78 2.42-4.89 5.56-4.89a5.26 5.26 0 0 1 3.59 1.28 5.76 5.76 0 0 1 1.48 1.84zM253.85 103.66h-2.78v-15.9h-4.25v-2.61h11.29v2.61h-4.25v15.9zM281.53 84.79a9.61 9.61 0 1 1 .56 19.21h-.62a9.52 9.52 0 0 1-9.67-9.37v-.14a9.68 9.68 0 0 1 9.66-9.7zm0 16.6a6.87 6.87 0 0 0 6.84-6.9v-.1a6.85 6.85 0 1 0-6.86 7zM310.25 103.66h-2.78V85.15h3.17c2.86 0 4 .25 5.2 1.17a5.54 5.54 0 0 1 2 4.34c0 3.36-2.45 5.5-6.31 5.5h-1.31v7.51zm1.06-10.09q3.84 0 3.84-3c0-2-1.28-2.86-4-2.86h-1v5.84h1.06zM351.88 85.15h3.89c3.2 0 5 .47 6.84 1.78a9 9 0 0 1 3.59 7.48 8.82 8.82 0 0 1-3.73 7.51c-1.89 1.36-3.42 1.75-6.76 1.75h-3.84V85.15zm4.06 15.9a7.33 7.33 0 0 0 4.89-1.33 6.39 6.39 0 0 0 2.53-5.31 6.61 6.61 0 0 0-2.5-5.34 7.68 7.68 0 0 0-4.92-1.31h-1.28V101zM385.32 87.76v4.45h7.2v2.61h-7.2V101h7.4v2.64h-10.2V85.15h10.2v2.61h-7.4zM417.38 89.24c-.86-1.39-1.47-1.81-2.75-1.81a2.47 2.47 0 0 0-2.71 2.2v.11c0 .89.67 1.61 2 2.17l1.83.75c3 1.22 4.34 2.92 4.34 5.45a5.74 5.74 0 0 1-5.59 5.89h-.42c-3.22 0-5.42-2-5.92-5.45l2.86-.64c.31 2.45 1.22 3.45 3.2 3.45a3 3 0 0 0 3-3v-.09c0-1.45-.78-2.36-2.64-3.17l-1.78-.75c-2.56-1.06-3.81-2.58-3.81-4.7 0-2.78 2.42-4.89 5.56-4.89a5.26 5.26 0 0 1 3.59 1.24 5.76 5.76 0 0 1 1.49 1.87zM439 103.66h-2.78V85.15H439v18.52zM473.49 94v.58a9 9 0 0 1-1.64 5.92 8.68 8.68 0 0 1-7 3.47 9.53 9.53 0 0 1-9.45-9.59 9.63 9.63 0 0 1 9.6-9.61h.09a9.42 9.42 0 0 1 5.56 1.81 10.53 10.53 0 0 1 2 1.95l-2 1.95a6.58 6.58 0 0 0-5.59-3.06 7 7 0 0 0-.17 14 5.61 5.61 0 0 0 5.53-4.75h-4.62v-2.61h7.65zM489.81 83.91L503.29 98V85.15h2.81v19.66l-13.51-14.1v13h-2.78zM526.15 87.76v4.45h7.2v2.61h-7.2V101h7.4v2.64h-10.2V85.15h10.2v2.61zM562 103.66h-3.4l-5.28-7.59h-.5v7.59H550V85.15h3.28c2.39 0 3.7.28 4.87 1.06a5.21 5.21 0 0 1 2.22 4.36 5.12 5.12 0 0 1-4.09 5.2zm-8.34-10c2.59 0 4-1.08 4-3s-1.33-2.89-3.86-2.89h-1v5.92h.89zM605.25 89.24c-.86-1.39-1.47-1.81-2.75-1.81a2.47 2.47 0 0 0-2.71 2.2v.11c0 .89.67 1.61 2 2.17l1.83.75c3 1.22 4.34 2.92 4.34 5.45a5.74 5.74 0 0 1-5.58 5.89H602c-3.22 0-5.42-2-5.92-5.45l2.83-.61c.31 2.45 1.22 3.45 3.2 3.45a3 3 0 0 0 3-3v-.09c0-1.45-.78-2.36-2.64-3.17l-1.78-.75c-2.56-1.06-3.81-2.58-3.81-4.7 0-2.78 2.42-4.89 5.56-4.89a5.26 5.26 0 0 1 3.56 1.28 5.76 5.76 0 0 1 1.52 1.84zM627.66 99.16l-2.08 4.5h-3L631.75 84l8.84 19.68h-3.06l-2-4.5zm4-8.92l-2.86 6.31h5.62zM659 101h5.45v2.61h-8.23V85.15H659zM683.29 87.76v4.45h7.2v2.61h-7.2V101h7.4v2.64h-10.2V85.15h10.2v2.61z"/></svg>