<svg xmlns="http://www.w3.org/2000/svg" viewBox="0 0 244.73 60.61"><path d="M15 10.23a14.75 14.75 0 0 0-5.48 1.05V4.74a4.75 4.75 0 0 0-9.52 0V25.2a15 15 0 1 0 15-15m0 20.45a5.49 5.49 0 1 1 5.48-5.49A5.49 5.49 0 0 1 15 30.69M168.4 10.23a14.9 14.9 0 0 0-5.51 1.05V4.74a4.73 4.73 0 1 0-9.47 0V25.2a15 15 0 1 0 15-15m0 20.45a5.49 5.49 0 1 1 5.48-5.49 5.52 5.52 0 0 1-5.48 5.49M86.56 0a4.75 4.75 0 0 0-4.74 4.74v6.54a14.75 14.75 0 0 0-5.48-1.05 15 15 0 1 0 15 15V4.74A4.74 4.74 0 0 0 86.56 0M76.34 30.69a5.49 5.49 0 1 1 5.48-5.49 5.49 5.49 0 0 1-5.48 5.49"/><path d="M117.24 0a4.73 4.73 0 0 0-4.72 4.74v6.54A15 15 0 1 0 122 25.2V4.74A4.74 4.74 0 0 0 117.24 0M107 30.69a5.49 5.49 0 1 1 5.48-5.49 5.5 5.5 0 0 1-5.48 5.49M137.7 10.23a15 15 0 0 0 0 29.93 14.76 14.76 0 0 0 6.71-1.6 4.72 4.72 0 0 0 8.26-3.14V25.2a15 15 0 0 0-15-15m0 20.45a5.49 5.49 0 1 1 5.5-5.49 5.49 5.49 0 0 1-5.5 5.49M199.08 10.23a15 15 0 1 0 0 29.93 14.67 14.67 0 0 0 6.69-1.6 4.73 4.73 0 0 0 8.29-3.14V25.2a15 15 0 0 0-15-15m0 20.45a5.49 5.49 0 1 1 5.48-5.49 5.49 5.49 0 0 1-5.48 5.49"/><path d="M244.73 25.2a15 15 0 1 0-15 15 5.49 5.49 0 0 1 0 11 4.74 4.74 0 1 0 0 9.47 14.94 14.94 0 0 0 10.89-25.2 14.8 14.8 0 0 0 4.08-10.22m-15 5.49a5.49 5.49 0 1 1 5.48-5.49 5.49 5.49 0 0 1-5.48 5.49M51.14 25.2a5.49 5.49 0 0 1-11 0 4.73 4.73 0 1 0-9.47 0 15 15 0 1 0 29.92 0 4.73 4.73 0 1 0-9.47 0"/><path d="M45.65 20.46a4.74 4.74 0 1 0 4.72 4.74 4.71 4.71 0 0 0-4.72-4.74"/></svg>