<svg xmlns="http://www.w3.org/2000/svg" viewBox="0 0 598 254.7"><path d="M597.2 108h-25.8c-.2 1.9-.4 3.4-.4 4.8 0 8.3-.4 16.7.1 25 .4 7-4.4 14.5-13.1 14.4-8.6-.1-13.2-7.5-12.8-14.7.4-8 .1-16 .1-24 0-1.6-.1-3.2-.2-5.5h-18.7c-9.5 0-8 .2-8-8-.1-19.8-.1-39.6 0-59.4 0-4.6.3-9.4 1.5-13.8 3.2-12.6 11.6-20.7 23.9-24.6 8.8-2.7 17.7-2.8 26.6-.6 16.1 4 26.9 16.3 27.3 33.3.6 23.6.2 47.3.2 70.9 0 .4-.3.8-.7 2.2zm-54-22.3h30.3c0-16.7.2-33-.1-49.3-.2-8.4-7.3-14.6-15.4-14.5-8.2.2-15 6.4-15.1 14.8-.2 15.8-.1 31.6 0 47.4-.1.5.1 1 .3 1.6zM304.8 224.2c-23.6-.4-42.5-14.6-48-36.4-7-28 12.5-55.7 41.1-58.9 17.9-2 33.5 2.5 45.4 16.3 23.6 27.2 8.6 70.3-26.8 77.4-3.8.9-7.8 1.1-11.7 1.6zm-23.9-48.6c-.1 17.6 14.2 29.4 30.6 25.4 11.1-2.7 18-12.6 17.8-25.6-.2-14.2-10.8-24.9-24.5-24.9-14 .1-23.8 10.4-23.9 25.1zM145.2 184.7c1.6 8.1 5.3 13.9 12.3 16.6 12.1 4.6 22.9 1.7 32.6-7.3 4.8 4.2 9.5 8.4 14.5 12.8-.9 1.2-1.5 2.3-2.4 3.2-13.9 13.9-30.7 16.7-48.9 12-17.7-4.6-28.5-16.5-32.5-34.3-5.1-22.6 5.3-45.7 24.7-54.9 20.4-9.7 54.3-5.4 62.3 30.5 1.5 6.7 1.4 13.8 2.1 21.5-22.1-.1-43.1-.1-64.7-.1zm38.9-15.9c-.7-12.3-9.5-20.6-20.3-19.9-10.2.7-18.8 10-18.2 19.9h38.5zM485.2 185.2c5.9-18.3 11.9-36.5 17.8-54.9h26.4c-3.5 10.4-7 20.4-10.4 30.5-9.4 27.7-18.8 55.4-28.1 83.1-.4 1.3-.8 2.6-1.3 3.8-2.6 5.7-8.8 8.4-14.5 6.3-5.9-2.1-9.1-7.9-7.4-14 1.3-4.6 2.8-9.2 4.4-13.8 1-2.8.9-5.3-.3-8.1-11.8-27.5-23.4-55.1-35-82.7-.6-1.5-1.2-3.1-2-5h27c7.4 18 14.9 36.4 22.5 54.7.3 0 .6 0 .9.1z"/><path d="M119.8 143.8c-5.2 5.6-10.1 10.9-15.3 16.5-1.8-1.4-3.3-2.7-4.8-3.9-7.7-6-16.3-7.9-25.2-3.7-9 4.1-13 12-13.5 21.7-.1 2.8-.1 5.7.5 8.4 3.7 16.8 20.8 24.2 35.7 15.6 2.9-1.6 5.4-3.8 7.7-5.4 5.1 4.8 10 9.6 15 14.4-15.9 20.2-49.1 22.4-68.9 4.7-20.3-18.1-20.9-50.9-1.6-70.2 18.8-18.9 54.9-17.6 70.4 1.9zM404 95.5h24.9v125.9H404V95.5zM244.7 221.5h-25V96.1h25v125.4zM389.5 221.5h-24.9V96.1h24.9v125.4zM.1 176.1c0-11.2.3-22.3-.1-33.5-.3-8.1 5.1-14 12.7-14.3 7.4-.2 12.9 5.7 13 14.1.1 14.3 0 28.7 0 43 0 8.3.2 16.7-.1 25-.2 8.2-5.5 13.5-13.1 13.4-7.2-.1-12.4-5.2-12.5-12.7 0-11.7.1-23.3.1-35zM26.1 104.8c.1 7.6-5.9 13.8-13.4 13.7-7.2-.1-13.3-6.1-13.4-13.3-.1-7.5 5.9-13.6 13.5-13.6s13.2 5.7 13.3 13.2z"/><g><path d="M525.9 213.6v1.2H523v6.9h-1.6v-6.9h-2.9v-1.2h7.4zM528.6 213.6l2.7 3.2 2.7-3.2h1.4v8.2h-1.6V216l-2.4 2.9h-.2l-2.4-2.9v5.7h-1.6v-8.2h1.4z"/></g></svg>