<svg xmlns="http://www.w3.org/2000/svg" viewBox="0 0 190.6 26.2"><path d="M5.7 3.5v17.2h6.9v4.9H0V3.5h5.7zM14.7 14.5c0-1.6.3-3.2.9-4.6.6-1.4 1.4-2.7 2.5-3.7s2.4-1.9 3.9-2.5 3.1-.9 4.9-.9c1.8 0 3.4.3 4.9.9s2.8 1.4 3.9 2.5 1.9 2.3 2.5 3.7c.6 1.4.9 2.9.9 4.6 0 1.6-.3 3.2-.9 4.6-.6 1.4-1.5 2.7-2.5 3.7s-2.4 1.9-3.9 2.5c-1.5.6-3.1.9-4.9.9-1.8 0-3.4-.3-4.9-.9-1.5-.6-2.8-1.4-3.9-2.5s-1.9-2.3-2.5-3.7c-.5-1.4-.9-3-.9-4.6zm6.1 0c0 .9.2 1.7.5 2.4s.8 1.4 1.3 1.9c.6.5 1.2 1 2 1.3.8.3 1.5.5 2.4.5.8 0 1.6-.2 2.4-.5.8-.3 1.4-.7 2-1.3.6-.5 1-1.2 1.4-1.9.3-.7.5-1.6.5-2.4 0-.9-.2-1.7-.5-2.4s-.8-1.4-1.4-1.9c-.6-.5-1.2-1-2-1.3-.8-.3-1.5-.5-2.4-.5-.8 0-1.6.2-2.4.5-.8.3-1.4.7-2 1.3-.6.5-1 1.2-1.3 1.9-.4.7-.5 1.5-.5 2.4zM46.4 3.5L51.7 17l5.4-13.5h6.2L54 25.6h-4.6L40.1 3.5h6.3zM78.8 8.3H72V12h6.5v4.9H72v3.8h6.8v4.9H66.2V3.5h12.6v4.8zM95.6 9.1c-.6-.5-1.2-.9-1.8-1.1-.6-.2-1.2-.4-1.8-.4-.7 0-1.3.2-1.8.5-.5.4-.7.8-.7 1.4 0 .4.1.7.4 1s.5.5.9.7c.4.2.8.3 1.3.5.5.1 1 .3 1.4.4 1.9.6 3.2 1.5 4.1 2.5.9 1 1.3 2.4 1.3 4.1 0 1.1-.2 2.2-.6 3.1s-.9 1.7-1.7 2.4c-.7.7-1.6 1.2-2.7 1.5-1.1.4-2.3.5-3.6.5-2.8 0-5.4-.8-7.8-2.5l2.5-4.6c.9.8 1.7 1.3 2.6 1.7.8.4 1.7.6 2.5.6.9 0 1.6-.2 2.1-.6.5-.4.7-.9.7-1.5 0-.3-.1-.6-.2-.9s-.3-.5-.6-.7-.6-.4-1.1-.6c-.4-.2-1-.4-1.6-.6-.7-.2-1.5-.5-2.2-.8-.7-.3-1.3-.7-1.9-1.1s-1-1.1-1.3-1.8c-.3-.7-.5-1.6-.5-2.7s.2-2.1.5-3c.4-.9.9-1.7 1.5-2.3.7-.6 1.5-1.1 2.4-1.5.9-.4 2-.5 3.2-.5 1.1 0 2.2.2 3.4.5 1.2.3 2.3.7 3.4 1.3l-2.3 4.5zM108.8 25.6H103V3.5h9.1c2.5 0 4.4.6 5.7 1.9 1.3 1.3 2 3.1 2 5.5s-.7 4.2-2 5.5c-1.3 1.3-3.2 1.9-5.7 1.9h-3.4v7.3zm0-12h1.9c2.1 0 3.2-.9 3.2-2.8 0-1.8-1.1-2.8-3.2-2.8h-1.9v5.6zM135.2 21.7H127l-1.3 3.8h-6.1l8.4-22h6.3l8.4 22.1h-6.1l-1.4-3.9zm-1.5-4.3l-2.6-7.4-2.6 7.4h5.2zM160.9 10.8c-1.3-1.6-3-2.4-4.9-2.4-.9 0-1.7.2-2.4.5s-1.4.7-1.9 1.3c-.5.5-.9 1.2-1.2 1.9-.3.7-.5 1.5-.5 2.4 0 .9.2 1.7.5 2.4s.7 1.4 1.3 1.9c.5.5 1.2 1 1.9 1.3.7.3 1.5.5 2.3.5 1.8 0 3.5-.8 5-2.3v6.8l-.6.2c-.9.3-1.7.5-2.5.7-.8.1-1.5.2-2.3.2-1.5 0-3-.3-4.4-.9s-2.6-1.4-3.7-2.4-1.9-2.3-2.6-3.7c-.6-1.4-1-3-1-4.7 0-1.7.3-3.3 1-4.7.6-1.4 1.5-2.6 2.6-3.7s2.3-1.8 3.7-2.4c1.4-.6 2.9-.9 4.4-.9.9 0 1.7.1 2.6.3.8.2 1.7.5 2.7.9v6.8zM177.7 8.3h-6.8V12h6.5v4.9h-6.5v3.8h6.8v4.9h-12.6V3.5h12.6v4.8z"/><g><path d="M190.6 4.4c0 1.2-.4 2.3-1.3 3.1-.9.9-1.9 1.3-3.1 1.3-1.2 0-2.3-.4-3.1-1.3-.9-.9-1.3-1.9-1.3-3.1 0-.7.1-1.3.4-1.9.3-.6.7-1.1 1.2-1.5.8-.7 1.7-1 2.8-1 .7 0 1.3.1 1.8.4.8.3 1.4.9 1.9 1.6.4.8.7 1.6.7 2.4zM186.1.6c-1 0-1.9.4-2.6 1.1-.7.7-1.1 1.6-1.1 2.7 0 1 .4 1.9 1.1 2.7.7.7 1.6 1.1 2.6 1.1s1.9-.4 2.6-1.1c.7-.7 1.1-1.6 1.1-2.7 0-.6-.1-1.1-.4-1.7-.3-.6-.6-1-1.1-1.3-.6-.5-1.4-.8-2.2-.8zm.5 4.2l1.7 2.1h-1.2l-1.5-2v2h-1v-5h1c.7 0 1.2.1 1.6.4.4.3.5.7.5 1.1 0 .3-.1.6-.3.9-.2.3-.4.4-.8.5zm-1.1-.7h.2c.7 0 1-.2 1-.7 0-.4-.3-.7-1-.7h-.2v1.4z"/></g></svg>