<svg xmlns="http://www.w3.org/2000/svg" viewBox="0 0 357.6 61.8"><path d="M22.3 55.5L9.8 0H8.7L0 61.8h2L9.6 8l12.1 53.8h1.2L35.1 8l7.5 53.8h2L36 0h-1.2M97.3 33L85.2 0h-2.1l13.1 36-9 25.8h2.1L111 0h-2.2M170.4 30.2c5.2-2.6 8.8-8 8.8-14.3 0-8.8-7.1-16-15.9-16h-7.2v61.8h11.1c8.8 0 15.9-7.2 15.9-16 .1-7.5-5.4-14-12.7-15.5zm-7-28.2c7.7 0 13.9 6.3 13.9 14s-6.2 14-13.9 14h-5.2V2h5.2zm3.9 57.8h-9.1V31.9h9.1c7.7 0 13.9 6.3 13.9 14s-6.3 13.9-13.9 13.9zM223.8 61.8h2.1l8.2-23.2h23.7l8.2 23.2h2.1L246-.9l-22.2 62.7zm33.4-25.2h-22.3L246 5.1l11.2 31.5zM343.8 29.8v2h11.8V51l-.3.3c-5.4 5.4-12.7 8.4-20.3 8.4-15.9 0-28.8-12.9-28.8-28.8 0-16 12.9-28.9 28.8-28.9 6 0 11.8 1.8 16.7 5.3l1.2-1.6C347.7 2 341.5 0 335 0c-17 0-30.8 13.8-30.8 30.8S318 61.6 335 61.6c8.2 0 15.9-3.2 21.8-9l.8-.9v-22h-13.8z"/></svg>