<svg version="1.2" xmlns="http://www.w3.org/2000/svg" viewBox="0 0 290.6 280.9"><path d="M265.6 40.3c-14.5-17.9-32.5-26.7-45-31.1-13.3-4.6-28.4-5.5-40.8-5.2-9.5-2.4-19.5-4-29.8-4-2.7 0-5.5.1-8.1.4-8.8.2-23.8 2.3-40.5 8C78.7 16 58 28 40 44.2 18.4 63.5 8.7 83.9 4.4 97.5 0 111.5.2 121.4.2 122.8c-.1 1.7-.9 14.7 1.6 31.7 4.5 29.9 15.8 47.9 24.5 57.7 5.4 6.1 10.7 11.8 16.1 16.9 9 13.2 20.3 24.7 33.1 33.8 17.2 12.3 37.3 16.2 51 17.4 4.2.4 8.1.5 11.5.5 6.1 0 10.7-.4 12.9-.7h1.1c.8 0 1.7.2 2.5.2 29.3 0 58.8-10.8 80.7-29.2 13-10.9 23.4-24.6 30.9-40.3 2.4-5.1 4.6-10.4 6.4-15.9 1.4-2.3 2.7-4.7 3.9-7.2 8.5-17.4 13.2-37.5 14-59.8 1.3-36.3-7.1-65.9-24.8-87.6zm10.1 110.2c-.8 15.4-3.4 29.6-7.7 42.6-7.1 12-16.2 22.5-27.4 31.5-29.5 23.6-65.9 30.8-91.3 32.7-25.2 1.9-45.3 0-62.4-5.8-18.7-13.6-32.4-30.6-38.5-44.2-7.2-16.1-11.2-32.3-12-49.8-1-22.5 2.9-46.8 12.1-74.5 2.8-8.6 6.7-16.7 11.4-24.2 9.3-8.1 20.7-15.7 35-23.6 20.1-11 35.8-17 45.4-20 10.4-3.3 16.1-4 16.2-4h.1c.2 0 9.9-1.7 22.8-2.1 19.2 5.1 35.9 13.8 45.9 19.8 9.2 5.5 22.4 15.9 33.1 34.3 13.4 23 19.2 52.4 17.3 87.3zM159.9 5.6c-2.3.3-3.8.6-4.2.6-1.8.2-24.6 3.4-63.3 24.6-7.7 4.2-14.6 8.4-20.8 12.7 6.8-7.5 14.8-14.3 23.8-20.1C112.7 12 127.7 7.9 127.9 7.9c4.6-1.2 9.3-2.1 14.3-2.5h.2c2.5-.2 5.1-.3 7.7-.3 3.3 0 6.6.1 9.8.5zM30.1 208.9c-14.9-16.8-20.9-39.2-23.3-55-2.6-17.3-1.6-30.7-1.6-30.8v-.4c0-.1-.4-9.9 4-24 4.1-13 13.4-32.3 34.1-50.9 17.3-15.4 37-27.1 58.8-34.5-3 1.6-6.1 3.5-9.4 5.6C82.2 25.9 73 34 65.3 43.1c-3.4 3.9-6.4 8.1-9.2 12.4-5.9 5.1-10.9 10.5-15.4 16.2-14.8 18.9-22.4 41.5-23.1 68.9-.7 25.4 4.1 49 14.2 70.2-.6-.6-1.1-1.2-1.7-1.9zm16.1 16.8c-2.7-4.1-5.3-8.3-7.6-12.6-11.4-21.6-16.7-45.9-16-72.4.7-26.3 8-47.8 22.1-65.9.9-1.2 1.9-2.4 2.9-3.6-1.5 3.3-2.8 6.8-3.9 10.3-21.8 66.1-10.4 104.7.1 128 5.1 11.3 14.2 23.3 25.6 34.1-7-4-14.3-9.3-23.2-17.9zm32.2 33.2c-5.8-4.1-11.3-8.8-16.3-13.9 3.9 2.6 8 4.9 12.3 6.9 3.2 1.5 6.5 2.8 9.9 4 9 6.5 21.1 13.7 35.6 18.6-13.1-1.9-28.3-6.2-41.5-15.6zm153.7-11.7C211 264.9 182.8 275 154.6 275h-2.4c-18.8-.4-36.3-6.2-51.5-14.6 14.1 2.7 30.2 3.4 48.9 2 26.1-1.9 63.6-9.4 94.1-33.8 5.6-4.5 10.7-9.3 15.3-14.6-6.9 12.9-16 24-26.9 33.2zm53.4-119.3c-.5 14.4-2.6 27.8-6.4 40 .8-5.5 1.4-11.2 1.7-17.1 2-35.9-4.1-66.3-18-90.2-11.2-19.3-25.1-30.3-34.9-36.1-7.3-4.3-17.9-10.1-30.5-14.9 7.3.7 14.7 2 21.5 4.3 26 9 69.1 35.7 66.6 114z"/><path d="M88.7 106.9c-1.1 0-2.3.7-2.3 1.9v15.8c-.7-1.4-1.5-2.8-2.3-4.2-2.2-4-4.4-8.2-6.5-12.2-.2-.8-1.2-1.4-2.3-1.4-1.3 0-2.3.9-2.3 2v24.8c0 1.3 1.2 1.9 2.3 1.9 1.2 0 2.3-.7 2.3-1.9v-15.8c.9 1.7 1.9 3.5 2.8 5.2 1.9 3.7 4 7.4 6 11.1.3.8 1.2 1.4 2.2 1.4 1.2 0 2.3-.7 2.3-2v-24.8c.1-1.2-1.1-1.8-2.2-1.8zm25 14.4c-1.4-4.8-2.8-9.4-4-13.4-.1-.5-.8-1.5-2.2-1.5-1.4 0-2.1 1-2.3 1.5l-4 13.3c-1 3.3-2.2 7.1-3.5 11.9-.2.9.1 1.5.4 1.8.4.5 1.1.7 1.8.7 1.9 0 2.5-2.3 3.1-4.3.1-.3.2-.7.3-.9h8.5c0 .1.1.2.1.2.1.4.3.9.4 1.5.1.2.1.4.2.6.4 1.5.8 2.9 2.8 2.9.7 0 1.3-.2 1.7-.7.4-.5.6-1.1.4-1.8l-3.7-11.8zm-9.3 5.2l3-10 3 10h-6zm34.3-19.8h-18.4c-1.4 0-2 .9-2 1.8s.7 1.7 2 1.7h6.9v23.4c0 1.3 1.2 1.9 2.3 1.9 1.2 0 2.3-.7 2.3-1.9v-23.4h6.9c1.3 0 2.1-.9 2.1-1.7-.1-.9-.8-1.8-2.1-1.8zm27.3 14.8v-12.8c0-1.2-1.2-1.9-2.3-1.9-1.1 0-2.3.6-2.3 1.9 0 3.1 0 6.3-.1 9.4 0 3.1-.1 6.2-.1 9.2 0 2.4-.6 4.9-5 4.9-1.5 0-2.7-.3-3.5-1-1.5-1.3-1.5-3.7-1.5-5.6v-16.9c0-1.2-1.2-1.9-2.3-1.9-1.1 0-2.3.6-2.3 1.9 0 3.1-.1 6.3-.1 9.5-.1 3.1-.1 6.2-.1 9.2 0 4.2 2.6 8.6 9.8 8.6 3.1 0 5.4-.7 7-2 2.9-2.5 2.9-6.9 2.9-11.1-.1-.5-.1-.9-.1-1.4zm22.9 4.3c2.9-2.2 2.9-6.3 2.9-9 0-3.1 0-9.6-7.5-10-1.7-.1-3.4-.1-5.1-.1-1.4 0-4.3 0-4.3 2.1v25c0 1.3 1.2 1.9 2.3 1.9 1.2 0 2.3-.7 2.3-1.9v-6.4h2.3c1.1 0 2 0 2.8-.1.8 2 1.8 4.2 2.9 6.9.4.9 1.2 1.4 2.2 1.4.7 0 1.4-.3 1.8-.8.4-.5.6-1.1.4-1.7l-3-7.3zm-9.3-2.4v-12.7h1.8c1.6 0 3.6.1 4.6 1 1.1 1.7 1.1 3.3 1.1 5.4v.4c0 1.3 0 4.5-1.6 5.6-.2.1-.9.5-3.6.5-.8-.1-1.7-.1-2.3-.2zm33.8-2.1c-1.4-4.8-2.8-9.4-4-13.4-.1-.5-.8-1.5-2.2-1.5-1.4 0-2.1 1-2.3 1.5l-4 13.3c-1 3.3-2.2 7.1-3.5 11.9-.2.9.1 1.5.4 1.8.4.5 1.1.7 1.8.7 1.9 0 2.5-2.3 3.1-4.3.1-.3.2-.7.3-.9h8.5c0 .1.1.2.1.2.1.4.3.9.4 1.5.1.2.1.4.2.6.4 1.5.8 2.9 2.8 2.9.7 0 1.3-.2 1.7-.7.4-.5.6-1.1.4-1.8l-3.7-11.8zm-9.2 5.2l3-10 3 10h-6zm34 5.1h-8.9v-22.9c0-1.2-.9-2-2.3-2s-2.3.8-2.3 1.9v25c0 1.1 1 1.9 2.3 1.9h11.2c1.5 0 2.2-1 2.2-2 .1-.9-.6-1.9-2.2-1.9zM86.3 159.8c1.5-1.9 1.7-4.3 1.7-5.5 0-3.8-2.5-8-8.1-8h-4.3c-3.6 0-3.6 1.2-3.6 3.5v23.7c0 1.2 1.1 2.5 4.2 2.5h4.6c5.9 0 9.2-3.2 9.2-8.7 0-3.3-1.4-6-3.7-7.5zm-5 12.1h-4.6v-9.3h5.2c2.6.2 3.5 2.6 3.5 4.6 0 2.8-1.5 4.5-4.1 4.7zm-1.4-13.3h-3.2v-8.4h2c2.5 0 4.6.3 4.6 4.4 0 1.8-.9 4-3.4 4zm31.7 13.2h-8.9v-23.5c0-1.2-.9-2-2.3-2s-2.3.8-2.3 2v25.6c0 1.2 1 2 2.3 2h11.2c1.5 0 2.2-1 2.2-2s-.7-2.1-2.2-2.1zm22.3-21.5c1.5 0 2.2-1 2.2-2s-.7-2-2.2-2h-11.2c-1.3 0-2.3.8-2.3 2v25.6c0 1.2 1 2 2.3 2h11.2c1.5 0 2.2-1 2.2-2s-.7-2-2.2-2H125v-8.7h6.5c1.5 0 2.2-1 2.2-2s-.7-2-2.2-2H125v-8.8h8.9zm25.8-3.8c-1.1 0-2.3.7-2.3 2v16.2c-.7-1.4-1.5-2.9-2.2-4.3-2.2-4.1-4.4-8.4-6.5-12.5-.2-.8-1.2-1.4-2.3-1.4-1.3 0-2.3.9-2.3 2V174c0 1.3 1.2 2 2.3 2 1.2 0 2.3-.7 2.3-2v-16.2c.9 1.8 1.9 3.6 2.8 5.4 1.9 3.8 4 7.6 6 11.4.3.8 1.2 1.4 2.2 1.4 1.1 0 2.3-.8 2.3-2v-25.5c.1-1.4-1.2-2-2.3-2zm19.2-.2h-3c-1.1 0-3.9 0-3.9 2.1V174c0 1.2.9 1.9 2.4 1.9h6c8.2 0 10.4-9.3 10.4-14.7-.1-3.7-.1-14.9-11.9-14.9zm7.1 14.9c0 6.7-2.4 10.7-6.4 10.7h-3.1v-21.5h2.8c4.6 0 6.7 3.5 6.7 10.8zm26.2-10.9c1.5 0 2.2-1 2.2-2s-.7-2-2.2-2H201c-1.4 0-2.3.8-2.3 2v25.6c0 1.2 1 2 2.3 2h11.2c1.5 0 2.2-1 2.2-2s-.7-2-2.2-2h-8.9v-8.7h6.5c1.5 0 2.2-1 2.2-2s-.7-2-2.2-2h-6.5v-8.8h8.9zm24.2 15.6c2.9-2.3 2.9-6.4 2.9-9.2 0-3.2 0-9.8-7.5-10.3-1.7-.1-3.4-.1-5.1-.1-1.4 0-4.3 0-4.3 2.1V174c0 1.3 1.2 2 2.3 2 1.2 0 2.3-.7 2.3-2v-6.6h2.3c1.1 0 2 0 2.8-.1.8 2.1 1.8 4.3 2.9 7.1.4.9 1.2 1.5 2.2 1.5.7 0 1.4-.3 1.8-.9.4-.5.6-1.2.4-1.7l-3-7.4zm-9.4-2.4v-13.1h1.8c1.6 0 3.6.1 4.6 1 1.1 1.7 1.1 3.4 1.1 5.5v.4c0 1.4 0 4.6-1.6 5.7-.2.2-.9.5-3.6.5-.8.1-1.6 0-2.3 0 .1 0 .1 0 0 0z"/></svg>