<svg xmlns="http://www.w3.org/2000/svg" viewBox="0 0 702.84 154.69"><path d="M178.35 33.34c0-6 3.56-9.93 9.92-9.93h22.53c18.7 0 32.57 12.22 32.57 30.41C243.37 72.4 229 84 211.56 84h-14.12v20.87c0 6.36-4.07 9.92-9.54 9.92s-9.54-3.56-9.54-9.92zm19.09 33.85h13c8 0 13.11-5.85 13.11-13.49s-5.09-13.49-13.11-13.49h-13zM252 54.71c0-6.11 4.84-9.16 9.42-9.16 4.84 0 8.91 1.78 8.91 7.63h.25c3.44-5.09 7.13-7.63 12.85-7.63 4.45 0 8.91 3.18 8.91 9.8 0 6-5.47 6.36-10.94 8.91s-11.07 5-11.07 12.21v28.12c0 6.11-3.82 10.18-9.16 10.18S252 110.7 252 104.59zM313.35 86.27c1.27 9 8.78 13.23 17.31 13.23 9.42 0 15.91-7.38 20.74-7.38 3.94 0 7.51 3.94 7.51 7.89 0 7.89-16.29 15.52-29.9 15.52-20.61 0-34.36-15-34.36-35.25 0-18.58 13.49-35.5 32.83-35.5 19.85 0 33 18.07 33 33.34 0 5.47-2.42 8.14-8 8.14zm28.76-12.21c-1-8-6.11-14-14.63-14-8.14 0-13.61 6.23-14.51 14zM369.59 26.21c0-6.11 3.82-10.18 9.16-10.18s9.16 4.07 9.16 10.18v78.38c0 6.11-3.82 10.18-9.16 10.18s-9.16-4.07-9.16-10.18zM464.63 80.29c0 19.09-13.11 35.25-32.83 35.25S399 99.37 399 80.29c0-18.58 13.49-35.5 32.83-35.5s32.8 16.92 32.8 35.5zm-47.33 0c0 8.78 4.58 18.45 14.51 18.45s14.5-9.67 14.5-18.45-4.45-18.7-14.5-18.7-14.51 9.92-14.51 18.7zM468.57 59.8a13.47 13.47 0 0 1-1.14-5.34c0-5.85 4.58-8.91 9.54-8.91s7.25 3.69 8.14 6.49l11.71 36.14h.25L508.78 52c.89-2.8 3.05-6.49 8.14-6.49s9.54 3.05 9.54 8.91a13.47 13.47 0 0 1-1.14 5.34l-18.45 47.33c-1.78 4.71-3.69 7.63-9.92 7.63s-8.14-2.93-9.93-7.63zM547.33 86.27c1.27 9 8.78 13.23 17.3 13.23 9.42 0 15.91-7.38 20.74-7.38 3.95 0 7.51 3.94 7.51 7.89 0 7.89-16.29 15.52-29.9 15.52-20.61 0-34.36-15-34.36-35.25 0-18.58 13.49-35.5 32.83-35.5 19.85 0 33 18.07 33 33.34 0 5.47-2.42 8.14-8 8.14zm28.76-12.21c-1-8-6.11-14-14.63-14-8.14 0-13.62 6.23-14.51 14zM665 104.59c0 6.11-3.82 10.18-9.16 10.18-5.09 0-8-2.8-9.16-7.63-3.44 5.6-10.56 8.4-16.8 8.4-18.45 0-30.16-17.18-30.16-34.48 0-17.81 9.8-36.26 29.52-36.26a26.53 26.53 0 0 1 17.43 6.36V26.21c0-6.11 3.82-10.18 9.16-10.18S665 20.1 665 26.21zm-32.7-43c-9.54 0-14.25 10.05-14.25 18.7s4.71 18.45 14.25 18.45c10.05 0 14.38-10.18 14.38-19.09s-4.56-18.07-14.35-18.07zM673.77 19.43H685v1.24h-4.89v14.2h-1.46V20.68h-4.89zM688.32 34.88V19.43h2.23l5.06 13.62 5-13.62h2.21v15.45h-1.46V21.11l-5.06 13.77h-1.4l-5.08-13.77v13.77zM66 0A66 66 0 0 0 2.65 84.52l.15.45q.69 2.31 1.55 4.55C14.9 118.57 37.58 143.14 66 154.69V132A66 66 0 0 0 66 0zm25.81 71l-.22.22-.1.1L66 96.94 40.66 71.59a16.55 16.55 0 1 1 25.26-21A16.55 16.55 0 1 1 91.79 71z"/></svg>